<svg width="120" height="120" viewBox="0 0 120 120" fill="none" xmlns="http://www.w3.org/2000/svg">
<path d="M78.0215 58.0325C78.4024 57.6516 78.9103 57.3977 79.5452 57.3977C80.18 57.3977 80.8148 57.6516 81.0687 58.0325C81.4496 58.4134 81.7036 58.9213 81.7036 59.5561C81.7036 60.064 81.4496 60.6988 81.0687 61.0797C80.6878 61.4606 80.18 61.7146 79.5452 61.7146C79.0373 61.7146 78.4024 61.4606 78.0215 61.0797C77.6406 60.6988 77.3867 60.191 77.3867 59.5561C77.3867 59.0483 77.6406 58.4134 78.0215 58.0325Z" fill="#4C4D56"/>
<path d="M79.5452 12.8323C78.9103 12.8323 78.4024 13.0863 78.0215 13.4672C77.6406 13.8481 77.3867 14.4829 77.3867 14.9908C77.3867 15.6256 77.6406 16.1335 78.0215 16.5144C78.4024 16.8953 79.0373 17.1492 79.5452 17.1492C80.18 17.1492 80.6878 16.8953 81.0687 16.5144C81.4496 16.1335 81.7036 15.4986 81.7036 14.9908C81.7036 14.3559 81.4496 13.8481 81.0687 13.4672C80.8148 13.0863 80.18 12.8323 79.5452 12.8323Z" fill="#4C4D56"/>
<path d="M78.0215 22.3549C78.4024 21.974 78.9103 21.72 79.5452 21.72C80.18 21.72 80.8148 21.974 81.0687 22.3549C81.4496 22.7358 81.7036 23.2436 81.7036 23.8785C81.7036 24.3863 81.4496 25.0212 81.0687 25.4021C80.6878 25.783 80.18 26.0369 79.5452 26.0369C79.0373 26.0369 78.4024 25.783 78.0215 25.4021C77.6406 25.0212 77.3867 24.5133 77.3867 23.8785C77.3867 23.3706 77.6406 22.7358 78.0215 22.3549Z" fill="#4C4D56"/>
<path d="M79.5452 30.6077C78.9103 30.6077 78.4024 30.8616 78.0215 31.2425C77.6406 31.6234 77.3867 32.2583 77.3867 32.7661C77.3867 33.401 77.6406 33.9088 78.0215 34.2897C78.4024 34.6706 79.0373 34.9246 79.5452 34.9246C80.18 34.9246 80.6878 34.6706 81.0687 34.2897C81.4496 33.9088 81.7036 33.274 81.7036 32.7661C81.7036 32.1313 81.4496 31.6234 81.0687 31.2425C80.8148 30.8616 80.18 30.6077 79.5452 30.6077Z" fill="#4C4D56"/>
<path d="M78.0215 40.2572C78.4024 39.8763 78.9103 39.6223 79.5452 39.6223C80.18 39.6223 80.8148 39.8763 81.0687 40.2572C81.4496 40.6381 81.7036 41.146 81.7036 41.7808C81.7036 42.2887 81.4496 42.9235 81.0687 43.3044C80.6878 43.6853 80.18 43.9392 79.5452 43.9392C79.0373 43.9392 78.4024 43.6853 78.0215 43.3044C77.6406 42.9235 77.3867 42.4156 77.3867 41.7808C77.3867 41.2729 77.6406 40.6381 78.0215 40.2572Z" fill="#4C4D56"/>
<path d="M79.5452 48.51C78.9103 48.51 78.4024 48.764 78.0215 49.1449C77.6406 49.5258 77.3867 50.1606 77.3867 50.6685C77.3867 51.3033 77.6406 51.8112 78.0215 52.1921C78.4024 52.573 79.0373 52.8269 79.5452 52.8269C80.18 52.8269 80.6878 52.573 81.0687 52.1921C81.4496 51.8112 81.7036 51.1763 81.7036 50.6685C81.7036 50.0336 81.4496 49.5258 81.0687 49.1449C80.8148 48.764 80.18 48.51 79.5452 48.51Z" fill="#4C4D56"/>
<path d="M89.1953 58.0325C89.5762 57.6516 90.0841 57.3977 90.7189 57.3977C91.2268 57.3977 91.8616 57.6516 92.2425 58.0325C92.6234 58.4134 92.8774 58.9213 92.8774 59.5561C92.8774 60.064 92.6234 60.6988 92.2425 61.0797C91.8616 61.4606 91.3539 61.7146 90.7189 61.7146C90.2112 61.7146 89.5762 61.4606 89.1953 61.0797C88.8144 60.6988 88.5605 60.191 88.5605 59.5561C88.5605 59.0483 88.8144 58.4134 89.1953 58.0325Z" fill="#4C4D56"/>
<path d="M90.7189 12.8323C90.0841 12.8323 89.5762 13.0863 89.1953 13.4672C88.8144 13.8481 88.5605 14.4829 88.5605 14.9908C88.5605 15.6256 88.8144 16.1335 89.1953 16.5144C89.5762 16.8953 90.2112 17.1492 90.7189 17.1492C91.3539 17.1492 91.8616 16.8953 92.2425 16.5144C92.6234 16.1335 92.8774 15.4986 92.8774 14.9908C92.8774 14.3559 92.6234 13.8481 92.2425 13.4672C91.8616 13.0863 91.2268 12.8323 90.7189 12.8323Z" fill="#4C4D56"/>
<path d="M89.1953 22.3549C89.5762 21.974 90.0841 21.72 90.7189 21.72C91.2268 21.72 91.8616 21.974 92.2425 22.3549C92.6234 22.7358 92.8774 23.2436 92.8774 23.8785C92.8774 24.3863 92.6234 25.0212 92.2425 25.4021C91.8616 25.783 91.3539 26.0369 90.7189 26.0369C90.2112 26.0369 89.5762 25.783 89.1953 25.4021C88.8144 25.0212 88.5605 24.5133 88.5605 23.8785C88.5605 23.3706 88.8144 22.7358 89.1953 22.3549Z" fill="#4C4D56"/>
<path d="M90.7189 30.6077C90.0841 30.6077 89.5762 30.8616 89.1953 31.2425C88.8144 31.6234 88.5605 32.2583 88.5605 32.7661C88.5605 33.401 88.8144 33.9088 89.1953 34.2897C89.5762 34.6706 90.2112 34.9246 90.7189 34.9246C91.3539 34.9246 91.8616 34.6706 92.2425 34.2897C92.6234 33.9088 92.8774 33.274 92.8774 32.7661C92.8774 32.1313 92.6234 31.6234 92.2425 31.2425C91.8616 30.8616 91.2268 30.6077 90.7189 30.6077Z" fill="#4C4D56"/>
<path d="M89.1953 40.2572C89.5762 39.8763 90.0841 39.6223 90.7189 39.6223C91.2268 39.6223 91.8616 39.8763 92.2425 40.2572C92.6234 40.6381 92.8774 41.146 92.8774 41.7808C92.8774 42.2887 92.6234 42.9235 92.2425 43.3044C91.8616 43.6853 91.3539 43.9392 90.7189 43.9392C90.2112 43.9392 89.5762 43.6853 89.1953 43.3044C88.8144 42.9235 88.5605 42.4156 88.5605 41.7808C88.5605 41.2729 88.8144 40.6381 89.1953 40.2572Z" fill="#4C4D56"/>
<path d="M90.7189 48.51C90.0841 48.51 89.5762 48.764 89.1953 49.1449C88.8144 49.5258 88.5605 50.1606 88.5605 50.6685C88.5605 51.3033 88.8144 51.8112 89.1953 52.1921C89.5762 52.573 90.2112 52.8269 90.7189 52.8269C91.3539 52.8269 91.8616 52.573 92.2425 52.1921C92.6234 51.8112 92.8774 51.1763 92.8774 50.6685C92.8774 50.0336 92.6234 49.5258 92.2425 49.1449C91.8616 48.764 91.2268 48.51 90.7189 48.51Z" fill="#4C4D56"/>
<path fill-rule="evenodd" clip-rule="evenodd" d="M85.0335 117.831C85.1083 117.833 85.1834 117.834 85.2587 117.834C89.5755 117.834 93.0036 114.406 93.0036 110.089V72.1258C97.8284 71.11 101.383 66.9201 101.383 61.8414H108.62C109.89 61.8414 110.779 60.8257 110.779 59.556C110.779 58.2864 109.763 57.2706 108.62 57.2706H101.383V52.8268H108.62C109.89 52.8268 110.779 51.8111 110.779 50.5414C110.779 49.2717 109.763 48.256 108.62 48.256H101.383V43.8121H108.62C109.89 43.8121 110.779 42.7964 110.779 41.5267C110.779 40.2571 109.763 39.2413 108.62 39.2413H101.383V34.7975H108.62C109.89 34.7975 110.779 33.7818 110.779 32.5121C110.779 31.2424 109.763 30.2267 108.62 30.2267H101.383V25.7829H108.62V26.1638C109.89 26.1638 110.779 25.148 110.779 23.8784C110.779 22.6087 109.763 21.593 108.62 21.593H101.383V17.1491H108.62C109.89 17.1491 110.779 16.1334 110.779 14.8637C110.779 13.594 109.763 12.5783 108.62 12.5783H101.383C101.256 6.7378 96.5587 2.16699 90.8452 2.16699H79.6721C73.8316 2.16699 69.1339 6.86476 69.1339 12.5783H61.8967C60.6271 12.5783 59.7383 13.594 59.7383 14.8637C59.7383 16.1334 60.754 17.1491 61.8967 17.1491H69.1339V21.593H61.8967C60.6271 21.593 59.7383 22.6087 59.7383 23.8784C59.7383 25.148 60.754 26.1638 61.8967 26.1638H69.1339V30.6076H61.8967C60.6271 30.6076 59.7383 31.6233 59.7383 32.893C59.7383 34.1627 60.754 35.1784 61.8967 35.1784H69.1339V39.6222H61.8967C60.6271 39.6222 59.7383 40.638 59.7383 41.9076C59.7383 43.1773 60.754 44.1931 61.8967 44.1931H69.1339V48.6369H61.8967C60.6271 48.6369 59.7383 49.6526 59.7383 50.9223C59.7383 52.192 60.754 53.2077 61.8967 53.2077H69.1339V57.6515H61.8967C60.6271 57.6515 59.7383 58.6673 59.7383 59.9369C59.7383 61.2066 60.754 62.2223 61.8967 62.2223H69.1339C69.1339 67.301 72.8159 71.4909 77.5137 72.5067V110.089C77.5137 111.505 77.8826 112.826 78.5309 113.961H65.8638C63.4514 113.961 61.4199 111.93 61.4199 109.517V100.249C61.4199 95.4242 57.484 91.6152 52.7862 91.6152C50.5008 91.6152 48.3424 92.5039 46.6918 94.1545C45.0412 95.8051 44.1525 97.9635 44.1525 100.249V109.517C44.1525 110.66 43.6446 111.803 42.8828 112.692C41.994 113.58 40.9783 113.961 39.7086 113.961C37.2962 113.961 35.2648 111.93 35.2648 109.517V104.185C37.6771 103.423 39.4547 101.138 39.4547 98.4714L39.9625 89.4567C42.3749 87.4253 43.8985 84.505 44.0255 81.2039V9.97549C44.0255 5.53165 40.3434 1.84961 35.8996 1.84961H33.1063C31.9636 1.84961 30.9479 2.73838 30.9479 4.00805V59.3656L20.7906 5.15075C20.6636 4.64288 20.4097 4.13501 19.9018 3.75411C19.3939 3.50018 18.8861 3.37321 18.2512 3.50018L15.5849 4.13501C13.4265 4.64288 11.6489 5.78558 10.5062 7.69008C9.36353 9.46762 8.98264 11.6261 9.36354 13.7845L22.4411 83.3623C22.949 85.9016 24.3456 88.0601 26.2501 89.5837L26.758 98.4714C26.758 101.138 28.5355 103.296 30.9479 104.185V109.517C30.9479 114.342 34.8839 118.151 39.5817 118.151C41.8671 118.151 44.0255 117.262 45.676 115.612C47.3266 113.961 48.2154 111.803 48.2154 109.517V100.249C48.2154 99.1062 48.7233 97.9635 49.4851 97.0747C50.3738 96.186 51.3896 95.8051 52.6592 95.8051C55.0716 95.8051 57.1031 97.8365 57.1031 100.249V109.517C57.1031 114.342 61.0391 118.151 65.7368 118.151H83.8931C84.3033 118.151 84.6972 118.036 85.0335 117.831ZM17.2355 8.07098C17.2355 8.07098 15.458 7.94402 14.1883 9.84852C13.5535 10.7373 13.4265 11.88 13.5535 12.8957L26.631 82.4735C27.1389 85.5208 29.9322 87.8062 33.1063 87.8062C37.9311 87.8062 40.4704 83.2353 39.7086 79.6803C39.0738 76.6331 36.4075 74.3477 33.2333 74.3477C32.7254 74.3477 32.3445 74.3477 31.8367 74.4746C31.2018 74.6016 30.694 74.4746 30.1861 74.2207C29.6782 73.8398 29.4243 73.3319 29.2973 72.8241L17.2355 8.07098ZM39.8356 72.4432V10.1025C39.8356 7.94402 38.185 6.16648 35.8996 6.16648H35.2648V70.2847C36.9153 70.6656 38.5659 71.4274 39.8356 72.4432ZM31.0749 98.4714C31.0749 99.4871 31.9636 100.249 33.1063 100.249C34.376 100.249 35.2648 99.4871 35.3917 98.4714L35.7726 91.6152C35.7421 91.6152 35.653 91.6298 35.5177 91.6521C35.0894 91.7225 34.198 91.8691 33.2333 91.8691C32.3445 91.8691 31.4558 91.8691 30.694 91.6152L31.0749 98.4714ZM90.8452 67.8089C94.1463 67.8089 96.9396 65.1426 96.9396 61.7145V12.9592C96.9396 9.65803 94.2733 6.86476 90.8452 6.86476H79.6721C76.371 6.86476 73.5777 9.53107 73.5777 12.9592V61.7145C73.5777 65.0156 76.244 67.8089 79.6721 67.8089H90.8452ZM85.1317 113.009C86.9092 113.009 88.4328 111.485 88.4328 109.708V72.3797H81.8305V109.708C81.8305 111.485 83.3542 113.009 85.1317 113.009Z" fill="#4C4D56"/>
</svg>
