<svg width="23" height="22" viewBox="0 0 23 22" fill="none" xmlns="http://www.w3.org/2000/svg">
  <path fill-rule="evenodd" clip-rule="evenodd"
    d="M8.14159 0C7.63085 0 7.21681 0.393989 7.21681 0.88V5.14105C7.21681 5.62706 7.63085 6.02105 8.14159 6.02105C8.65234 6.02105 9.06637 5.62706 9.06637 5.14105V3.89053H13.1792C13.6899 3.89053 14.104 3.49654 14.104 3.01053C14.104 2.52452 13.6899 2.13053 13.1792 2.13053H9.06637V0.88C9.06637 0.393989 8.65234 0 8.14159 0ZM22.5 9.40211C22.5 8.91609 22.086 8.52211 21.5752 8.52211H1.42478C0.914038 8.52211 0.5 8.91609 0.5 9.40211V18.9895C0.5 20.6522 1.91641 22 3.66372 22H19.3363C21.0835 22 22.5 20.6522 22.5 18.9895V9.40211ZM20.6504 10.2821V18.9895C20.6504 19.6801 20.0621 20.24 19.3363 20.24H3.66372C2.93789 20.24 2.34956 19.6802 2.34956 18.9895V10.2821H20.6504Z"
    fill="#4C4D56" />
  <path fill-rule="evenodd" clip-rule="evenodd"
    d="M19.1522 3.61458C19.9202 3.61458 20.5428 4.18122 20.5428 4.88021V9.19271C20.5428 9.68459 20.9809 10.0833 21.5214 10.0833C22.0619 10.0833 22.5 9.68459 22.5 9.19271V4.88021C22.5 3.19747 21.0011 1.83333 19.1522 1.83333H16.7829C16.2425 1.83333 15.8043 2.23208 15.8043 2.72396C15.8043 3.21584 16.2425 3.61458 16.7829 3.61458H19.1522Z"
    fill="#4C4D56" />
  <path fill-rule="evenodd" clip-rule="evenodd"
    d="M16.7609 0C16.2326 0 15.8043 0.419877 15.8043 0.93782V5.47885C15.8043 5.99679 16.2326 6.41667 16.7609 6.41667C17.2891 6.41667 17.7174 5.99679 17.7174 5.47885V0.93782C17.7174 0.419877 17.2891 0 16.7609 0Z"
    fill="#4C4D56" />
  <path fill-rule="evenodd" clip-rule="evenodd"
    d="M5.28261 2.72396C5.28261 2.23208 4.8566 1.83333 4.33109 1.83333H3.75518C1.95735 1.83333 0.5 3.19747 0.5 4.88021V9.19271C0.5 9.68459 0.926007 10.0833 1.45151 10.0833C1.97702 10.0833 2.40303 9.68459 2.40303 9.19271V4.88021C2.40303 4.18121 3.00838 3.61458 3.75518 3.61458H4.33109C4.8566 3.61458 5.28261 3.21584 5.28261 2.72396Z"
    fill="#4C4D56" />
  <circle cx="11.5" cy="13" r="6" fill="#ED21F1" fill-opacity="0.9947" />
  <path
    d="M11.28 13.736V12.216C11.28 12.1227 11.2827 12.0227 11.288 11.916C11.296 11.8067 11.3067 11.6933 11.32 11.576L9.78 13.736H11.28ZM12.96 13.736V14.432C12.96 14.4933 12.9387 14.5467 12.896 14.592C12.856 14.6373 12.7973 14.66 12.72 14.66H12.36V16H11.28V14.66H8.936C8.85867 14.66 8.788 14.636 8.724 14.588C8.66267 14.54 8.624 14.48 8.608 14.408L8.48 13.796L11.176 10.172H12.36V13.736H12.96Z"
    fill="white" />
</svg>