<svg
  width="24"
  height="22"
  viewBox="0 0 24 22"
  fill="none"
  xmlns="http://www.w3.org/2000/svg"
>
  <path
    d="M11.2819 0.29211C11.4938 0.103932 11.7674 0 12.0508 0C12.3342 0 12.6077 0.103932 12.8196 0.29211L23.2411 9.55562C23.4589 9.76257 23.5878 10.0461 23.6005 10.3463C23.6132 10.6465 23.5087 10.9399 23.309 11.1644C23.1094 11.389 22.8303 11.5272 22.5307 11.5498C22.2311 11.5724 21.9344 11.4777 21.7033 11.2856L21.3143 10.9417V19.6841C21.3143 20.2983 21.0703 20.8874 20.636 21.3217C20.2017 21.756 19.6126 22 18.9984 22H5.10312C4.48891 22 3.89986 21.756 3.46555 21.3217C3.03124 20.8874 2.78724 20.2983 2.78724 19.6841V10.9417L2.39817 11.2856C2.16712 11.4777 1.87044 11.5724 1.57083 11.5498C1.27121 11.5272 0.992107 11.389 0.792486 11.1644C0.592864 10.9399 0.488354 10.6465 0.501032 10.3463C0.513711 10.0461 0.642585 9.76257 0.86043 9.55562L11.2819 0.29211ZM5.10312 8.88055V19.6841H8.57694V13.8944C8.57694 13.5873 8.69894 13.2928 8.91609 13.0756C9.13325 12.8585 9.42777 12.7365 9.73488 12.7365H14.3666C14.6737 12.7365 14.9683 12.8585 15.1854 13.0756C15.4026 13.2928 15.5246 13.5873 15.5246 13.8944V19.6841H18.9984V8.8817L12.0508 2.70641L5.10312 8.88055ZM13.2087 19.6841V15.0524H10.8928V19.6841H13.2087Z"
    fill="#4C4D56"
  />
</svg>
