<svg
  width="23"
  height="24"
  viewBox="0 0 23 24"
  fill="none"
  xmlns="http://www.w3.org/2000/svg"
>
  <path
    d="M11.6016 1C17.6767 1 22.6016 5.92491 22.6016 12C22.6016 18.0754 17.6767 23 11.6016 23C5.52612 23 0.601562 18.0754 0.601562 12C0.601562 5.92491 5.52612 1 11.6016 1ZM11.6016 21.6467C16.9087 21.6467 21.2266 17.3072 21.2266 12C21.2266 6.6928 16.9087 2.37496 11.6016 2.37496C6.29441 2.37496 1.97656 6.69282 1.97656 12C1.97656 17.3071 6.29441 21.6467 11.6016 21.6467ZM6.78906 11.3125H10.9141V7.1875C10.9141 6.808 11.2221 6.5 11.6016 6.5C11.9811 6.5 12.2891 6.808 12.2891 7.1875V11.3125H16.4141C16.7936 11.3125 17.1016 11.6205 17.1016 12C17.1016 12.3795 16.7936 12.6875 16.4141 12.6875H12.2891V16.8125C12.2891 17.192 11.9811 17.5 11.6016 17.5C11.2221 17.5 10.9141 17.192 10.9141 16.8125V12.6875H6.78906C6.40956 12.6875 6.10156 12.3795 6.10156 12C6.10156 11.6205 6.40956 11.3125 6.78906 11.3125Z"
    fill="#ED21F1"
    stroke="#ED21F1"
    stroke-width="0.5"
  />
</svg>
