<svg width="21" height="20" viewBox="0 0 21 20" fill="none" xmlns="http://www.w3.org/2000/svg">
<path d="M11 9.79311V9.586V5.01494L10.9949 4.92968C10.9783 4.81262 10.9207 4.70509 10.8321 4.62636C10.7406 4.54499 10.6224 4.50003 10.5 4.5L11 9.79311ZM11 9.79311L11.1464 9.93955M11 9.79311L11.1464 9.93955M11.1464 9.93955L13.8528 12.646M11.1464 9.93955L13.8528 12.646M13.8528 12.646C13.853 12.6461 13.8531 12.6462 13.8533 12.6464M13.8528 12.646L13.8533 12.6464M13.8533 12.6464C13.9427 12.7363 13.9946 12.8569 13.9985 12.9836C14.0023 13.1106 13.9577 13.2343 13.8737 13.3296C13.7897 13.4249 13.6726 13.4846 13.5461 13.4967C13.4241 13.5083 13.3023 13.4747 13.2036 13.4026L13.1356 13.3425L10.1467 10.3536C10.0721 10.2789 10.0231 10.1825 10.0066 10.0784L10 9.98285V5C10 4.86739 10.0527 4.74022 10.1464 4.64645C10.2402 4.55269 10.3673 4.50002 10.4999 4.5L13.8533 12.6464ZM10.5 0.5C15.7469 0.5 20 4.75314 20 10C20 15.2469 15.7469 19.5 10.5 19.5C5.25314 19.5 1 15.2469 1 10C1 4.75314 5.25314 0.5 10.5 0.5ZM10.5 1.5C8.24566 1.5 6.08365 2.39553 4.48959 3.98959C2.89553 5.58365 2 7.74566 2 10C2 12.2543 2.89553 14.4163 4.48959 16.0104C6.08365 17.6045 8.24566 18.5 10.5 18.5C12.7543 18.5 14.9163 17.6045 16.5104 16.0104C18.1045 14.4163 19 12.2543 19 10C19 7.74566 18.1045 5.58365 16.5104 3.98959C14.9163 2.39553 12.7543 1.5 10.5 1.5Z" fill="#4C4D56" stroke="#ED21F1"/>
</svg>