<svg width="192" height="189" viewBox="0 0 192 189" fill="none" xmlns="http://www.w3.org/2000/svg">
  <path
    d="M117.363 2.48047C75.1018 12.2395 43.6328 49.7369 43.6328 94.504C43.6328 139.271 75.1018 176.768 117.355 186.527C159.608 176.768 191.077 139.271 191.077 94.504C191.085 49.7369 159.616 12.2395 117.363 2.48047ZM129.607 133.246C125.823 136.505 121.698 139.115 117.363 141.104C117.363 141.104 117.363 141.129 117.363 141.104C99.5884 132.952 87.2665 115.146 87.2665 94.4953C87.2665 73.8449 99.5884 56.0384 117.363 47.8871C123.822 50.8347 129.764 55.1567 134.728 60.8098C153.534 82.2123 151.244 114.644 129.607 133.246Z"
    fill="#F15B22" />
  <path
    d="M95.5431 0C103.05 0 110.356 0.855751 117.356 2.47217C75.1026 12.2398 43.6336 49.7373 43.6336 94.5043C43.6336 139.271 75.1026 176.769 117.356 186.528C110.347 188.144 103.041 189 95.5431 189C42.7772 189 0 146.697 0 94.5043C0.00873896 42.3121 42.7772 0 95.5431 0Z"
    fill="url(#paint0_linear_118_3650)" />
  <path
    d="M61.4967 55.7541C77.4191 42.062 99.3801 39.6763 117.365 47.8967C99.5898 56.048 87.2679 73.8545 87.2679 94.5049C87.2679 115.155 99.5898 132.962 117.365 141.113C96.9245 150.483 71.8961 145.85 56.3757 128.19C37.5694 106.788 39.859 74.3558 61.4967 55.7541Z"
    fill="url(#paint1_linear_118_3650)" />
  <path
    d="M178.354 60.8176C197.161 82.22 194.871 114.643 173.233 133.254C157.311 146.946 135.35 149.332 117.365 141.111C121.7 139.123 125.825 136.513 129.609 133.254C151.246 114.652 153.536 82.22 134.73 60.8176C129.766 55.1644 123.823 50.8511 117.365 47.8949C137.797 38.5248 162.834 43.158 178.354 60.8176Z"
    fill="url(#paint2_linear_118_3650)" />
  <path
    d="M46.1419 72.9297L142.681 72.9383C149.122 86.6822 149.017 102.518 142.681 116.072L46.1419 116.08C44.5077 109.148 43.6426 101.93 43.6426 94.505C43.6426 87.0798 44.499 79.8535 46.1419 72.9297Z"
    fill="#F15B22" />
  <defs>
    <linearGradient id="paint0_linear_118_3650" x1="-33.6842" y1="94.5018" x2="83.671" y2="94.5018"
      gradientUnits="userSpaceOnUse">
      <stop offset="0.2239" stop-color="#FFDF00" />
      <stop offset="0.5849" stop-color="#FCAF17" />
      <stop offset="1" stop-color="#F47920" />
    </linearGradient>
    <linearGradient id="paint1_linear_118_3650" x1="43.6425" y1="94.5031" x2="119.117" y2="94.5031"
      gradientUnits="userSpaceOnUse">
      <stop offset="0.1532" stop-color="#F15B22" />
      <stop offset="0.5208" stop-color="#F47920" />
      <stop offset="0.7567" stop-color="#F8971D" />
      <stop offset="0.9278" stop-color="#FCAF17" />
    </linearGradient>
    <linearGradient id="paint2_linear_118_3650" x1="141.806" y1="94.4499" x2="258.149" y2="92.1285"
      gradientUnits="userSpaceOnUse">
      <stop offset="0.00481683" stop-color="#FCAF17" />
      <stop offset="0.4218" stop-color="#F47920" />
    </linearGradient>
  </defs>
</svg>