<svg width="71" height="71" viewBox="0 0 71 71" fill="none" xmlns="http://www.w3.org/2000/svg">
  <path
    d="M43.6054 1.84277C27.9787 5.42795 16.3428 19.2034 16.3428 35.6495C16.3428 52.0956 27.9787 65.8711 43.6022 69.4563C59.2256 65.8711 70.8615 52.0956 70.8615 35.6495C70.8648 19.2034 59.2288 5.42795 43.6054 1.84277ZM48.1325 49.8823C46.7333 51.0795 45.2081 52.0385 43.6054 52.7688C43.6054 52.7688 43.6054 52.7784 43.6054 52.7688C37.0329 49.7743 32.4767 43.2327 32.4767 35.6464C32.4767 28.06 37.0329 21.5184 43.6054 18.5239C45.9933 19.6067 48.1906 21.1945 50.026 23.2713C56.9798 31.1339 56.1332 43.0485 48.1325 49.8823Z"
    fill="#F15B22" />
  <path
    d="M35.537 0.931641C38.3127 0.931641 41.014 1.24602 43.6023 1.83984C27.9789 5.4282 16.3429 19.2037 16.3429 35.6498C16.3429 52.0959 27.9789 65.8714 43.6023 69.4565C41.0108 70.0504 38.3094 70.3647 35.537 70.3647C16.0263 70.3647 0.208984 54.8237 0.208984 35.6498C0.212216 16.4759 16.0263 0.931641 35.537 0.931641Z"
    fill="url(#paint0_linear_118_2163)" />
  <path
    d="M22.9474 21.4145C28.8349 16.3844 36.9552 15.508 43.6052 18.5279C37.0327 21.5224 32.4766 28.064 32.4766 35.6504C32.4766 43.2367 37.0327 49.7784 43.6052 52.7729C36.0472 56.2152 26.7927 54.5131 21.0539 48.0255C14.1001 40.1628 14.9467 28.2482 22.9474 21.4145Z"
    fill="url(#paint1_linear_118_2163)" />
  <path
    d="M66.1568 23.2748C73.1106 31.1374 72.264 43.0488 64.2633 49.8858C58.3758 54.9158 50.2555 55.7923 43.6055 52.7723C45.2082 52.0419 46.7334 51.0829 48.1325 49.8858C56.1333 43.052 56.9799 31.1374 50.0261 23.2748C48.1907 21.198 45.9934 19.6134 43.6055 18.5273C51.1603 15.085 60.418 16.7871 66.1568 23.2748Z"
    fill="url(#paint2_linear_118_2163)" />
  <path
    d="M17.2699 27.7236L52.9662 27.7268C55.3477 32.7759 55.3089 38.5935 52.9662 43.5727L17.2699 43.5759C16.6656 41.0291 16.3457 38.3776 16.3457 35.6498C16.3457 32.922 16.6624 30.2672 17.2699 27.7236Z"
    fill="#F15B22" />
  <defs>
    <linearGradient id="paint0_linear_118_2163" x1="-12.2461" y1="35.6489" x2="31.1472" y2="35.6489"
      gradientUnits="userSpaceOnUse">
      <stop offset="0.2239" stop-color="#FFDF00" />
      <stop offset="0.5849" stop-color="#FCAF17" />
      <stop offset="1" stop-color="#F47920" />
    </linearGradient>
    <linearGradient id="paint1_linear_118_2163" x1="16.3457" y1="35.6497" x2="44.2533" y2="35.6497"
      gradientUnits="userSpaceOnUse">
      <stop offset="0.1532" stop-color="#F15B22" />
      <stop offset="0.5208" stop-color="#F47920" />
      <stop offset="0.7567" stop-color="#F8971D" />
      <stop offset="0.9278" stop-color="#FCAF17" />
    </linearGradient>
    <linearGradient id="paint2_linear_118_2163" x1="52.6428" y1="35.6303" x2="95.6615" y2="34.7663"
      gradientUnits="userSpaceOnUse">
      <stop offset="0.00481683" stop-color="#FCAF17" />
      <stop offset="0.4218" stop-color="#F47920" />
    </linearGradient>
  </defs>
</svg>