<svg width="28" height="28" viewBox="0 0 28 24" fill="none" xmlns="http://www.w3.org/2000/svg">
  <path fill-rule="evenodd" clip-rule="evenodd"
    d="M11.7522 0.585938H16.9006C19.2018 0.585938 21.0247 0.585938 22.4508 0.784913C23.9181 0.990391 25.1063 1.42215 26.0441 2.39492C26.9806 3.36899 27.3962 4.60316 27.5941 6.12734C27.7856 7.6099 27.7856 9.50212 27.7856 11.8924V12.0381C27.7856 14.4284 27.7856 16.3219 27.5941 17.8032C27.3962 19.3273 26.9806 20.5615 26.0441 21.5356C25.1063 22.5083 23.9181 22.9401 22.4508 23.1456C21.0235 23.3446 19.2018 23.3446 16.9006 23.3446H11.7522C9.45104 23.3446 7.6281 23.3446 6.20204 23.1456C4.73468 22.9401 3.54651 22.5083 2.60875 21.5356C1.67224 20.5615 1.25657 19.3273 1.05875 17.8032C0.867188 16.3206 0.867188 14.4284 0.867188 12.0381V11.8924C0.867188 9.50212 0.867188 7.6086 1.05875 6.12734C1.25657 4.60316 1.67224 3.36899 2.60875 2.39492C3.54651 1.42215 4.73468 0.990391 6.20204 0.784913C7.62935 0.585938 9.45104 0.585938 11.7522 0.585938ZM6.4512 2.71875C5.19166 2.89431 4.46549 3.22464 3.93464 3.77475C3.40628 4.32485 3.08827 5.07914 2.91925 6.38743C2.74647 7.72434 2.74397 9.48521 2.74397 11.9652C2.74397 14.4453 2.74647 16.2062 2.91925 17.5444C3.08827 18.8514 3.40628 19.6056 3.93589 20.1558C4.46549 20.7059 5.19166 21.0362 6.4512 21.2118C7.73827 21.3912 9.43351 21.3938 11.8211 21.3938H16.8292C19.2168 21.3938 20.9133 21.3912 22.2004 21.2118C23.4586 21.0362 24.1848 20.7059 24.7144 20.1558C25.244 19.6056 25.562 18.8514 25.731 17.5431C25.9038 16.2062 25.9063 14.4453 25.9063 11.9652C25.9063 9.48521 25.9038 7.72434 25.731 6.38613C25.562 5.07914 25.244 4.32485 24.7144 3.77475C24.1848 3.22464 23.4586 2.89431 22.1991 2.71875C20.9133 2.53928 19.2168 2.53668 16.8292 2.53668H11.8211C9.43351 2.53668 7.73952 2.53928 6.4512 2.71875ZM6.09187 6.13904C6.25129 5.94044 6.48012 5.81572 6.72805 5.79231C6.97598 5.7689 7.22271 5.84871 7.414 6.01419L10.1196 8.35378C11.2877 9.36426 12.0978 10.0639 12.7839 10.5217C13.4462 10.9639 13.8957 11.1134 14.3277 11.1134C14.7596 11.1134 15.2091 10.9652 15.8714 10.5217C16.5562 10.0639 17.3676 9.36426 18.5357 8.35378L21.2388 6.01289C21.3336 5.93092 21.443 5.86914 21.5608 5.83108C21.6785 5.79302 21.8024 5.77943 21.9252 5.79108C22.048 5.80274 22.1675 5.83941 22.2766 5.899C22.3858 5.95859 22.4826 6.03993 22.5616 6.13839C22.6405 6.23685 22.7 6.35049 22.7366 6.47282C22.7732 6.59515 22.7863 6.72378 22.7751 6.85137C22.7639 6.97895 22.7286 7.10299 22.6712 7.21641C22.6138 7.32982 22.5355 7.43039 22.4407 7.51236L19.6913 9.89226C18.5808 10.8546 17.6818 11.6323 16.8868 12.1629C16.0604 12.7156 15.2554 13.0642 14.3277 13.0642C13.3999 13.0642 12.5949 12.7143 11.7673 12.1629C10.9735 11.6323 10.0745 10.8533 8.964 9.89356L6.21331 7.51366C6.11846 7.43165 6.0401 7.33102 5.98271 7.21753C5.92533 7.10403 5.89004 6.9799 5.87888 6.85223C5.86772 6.72456 5.88089 6.59586 5.91765 6.47349C5.95441 6.35111 6.01279 6.23746 6.09187 6.13904Z"
    fill="#F60EFB" />
</svg>