<svg width="70" height="70" viewBox="0 0 70 70" fill="none" xmlns="http://www.w3.org/2000/svg">
<path d="M20.3753 30.6204C24.3423 37.2263 31.3947 44.579 39.0028 49.2894C40.0377 48.2362 41.0917 47.1831 42.1458 46.1109C43.1231 45.1152 44.273 44.4067 45.6528 44.1386C47.9908 43.66 50.0989 44.1386 51.8236 45.7853C54.1808 48.0448 56.4613 50.3425 58.7227 52.6977C61.099 55.1869 61.2524 59.0355 59.0102 61.6779C57.6303 63.2863 56.0972 64.799 54.4683 66.1585C51.9769 68.2264 49.0257 69.0689 45.7869 69.1647C41.245 69.2987 37.0289 68.0924 33.0045 66.2159C20.2987 60.2418 10.8125 50.8786 4.27751 38.5092C2.13114 34.4116 0.751322 30.0651 0.425533 25.4505C0.0997432 20.9699 1.44123 17.0638 4.6033 13.8279C5.52318 12.8896 6.46222 11.9514 7.40126 11.0514C10.2375 8.31333 14.377 8.31333 17.1749 11.0706C19.3405 13.196 21.4869 15.3405 23.6332 17.5042C26.3162 20.2423 26.3737 24.3208 23.7866 27.1546C22.8475 28.1695 21.8318 29.1269 20.8545 30.1225C20.682 30.2757 20.5287 30.4481 20.3753 30.6204Z" fill="#ED21F1"/>
<path d="M69.3779 33.7989C69.3779 34.1819 69.3779 34.5648 69.3779 34.9478C69.3396 36.2115 68.3239 37.2263 67.0782 37.2263C65.8326 37.2263 64.7977 36.2307 64.7977 34.9478C64.7594 30.1225 63.8012 25.4888 61.559 21.1997C56.8829 12.296 49.5814 6.9347 39.6736 5.2114C38.1596 4.94334 36.5882 4.88589 35.0359 4.79016C33.6369 4.71356 32.6595 3.79448 32.6595 2.45414C32.6595 1.13295 33.6561 0.194712 35.0742 0.175564C49.179 0.079826 62.0764 9.04094 67.2124 22.5209C68.5922 26.1398 69.3013 29.9119 69.3779 33.7989Z" fill="#ED21F1"/>
<path d="M54.8899 32.0947C54.909 34.2393 54.4491 35.1009 53.3759 35.503C51.9003 36.0392 50.348 35.0052 50.3097 33.3776C50.2522 30.9267 49.7731 28.5716 48.5082 26.4462C45.8253 21.9273 41.8583 19.5339 36.6073 19.3041C35.2275 19.2467 34.2885 18.3659 34.2502 17.1213C34.2118 15.7235 35.1892 14.6895 36.5882 14.7087C41.2642 14.747 45.3845 16.3171 48.8532 19.4764C52.7052 22.9805 54.6599 27.4227 54.8899 32.0947Z" fill="#ED21F1"/>
</svg>
