<svg width="26" height="26" viewBox="0 0 2s6 26" fill="none" xmlns="http://www.w3.org/2000/svg">
  <path fill-rule="evenodd" clip-rule="evenodd"
    d="M0.861339 7.41347C0.861339 17.5097 8.91208 25.724 18.8073 25.724C20.5105 25.7271 22.1566 25.0975 23.4382 23.9528C24.7197 22.8081 25.5491 21.2265 25.7713 19.5035C25.8231 19.0674 25.7352 18.6258 25.5207 18.2449C25.3062 17.8639 24.9765 17.5641 24.5811 17.3902L18.7101 14.7059L18.6939 14.6983C18.3891 14.5652 18.0566 14.5119 17.7265 14.543C17.3964 14.574 17.0791 14.6886 16.8033 14.8763C16.7708 14.8982 16.7396 14.9219 16.7098 14.9475L13.6765 17.5809C11.7548 16.626 9.77074 14.6194 8.83731 12.6841L11.432 9.54588C11.4569 9.51409 11.4806 9.48231 11.503 9.44797C11.6826 9.16635 11.7911 8.84372 11.8187 8.50889C11.8463 8.17407 11.7923 7.83748 11.6613 7.52918V7.51392L9.02923 1.5185C8.85817 1.11575 8.56404 0.780248 8.19074 0.562078C7.81744 0.343907 7.385 0.254769 6.95797 0.30797C5.26927 0.534699 3.7192 1.38088 2.59728 2.68846C1.47535 3.99604 0.858286 5.67561 0.861339 7.41347ZM7.18601 2.29545C6.00445 2.46358 4.91279 3.06116 4.11513 3.99081C3.30806 4.93143 2.85912 6.14651 2.86134 7.40996L2.86134 7.41347C2.86134 16.4432 10.0544 23.724 18.8073 23.724H18.8109C20.0166 23.7262 21.1882 23.2809 22.1058 22.4612C23.0206 21.6441 23.6211 20.5094 23.7856 19.2638C23.7867 19.2484 23.7829 19.2349 23.778 19.2263C23.7761 19.2227 23.7744 19.2208 23.7735 19.2198L23.7627 19.2151L17.9212 16.5444L13.9806 19.9654L12.7865 19.3719C10.4671 18.2194 8.16236 15.8885 7.03589 13.553L6.47882 12.398L9.82463 8.35127C9.82501 8.34912 9.8253 8.34685 9.8255 8.34448C9.82655 8.3318 9.82429 8.32007 9.8205 8.31115L9.6613 7.93637V7.93361L7.19309 2.31144L7.18839 2.30036C7.18759 2.29847 7.18678 2.29685 7.18601 2.29545Z"
    fill="#F60EFB" />
</svg>