<svg width="70" height="70" viewBox="0 0 70 70" fill="none" xmlns="http://www.w3.org/2000/svg">
  <g clip-path="url(#clip0_118_2155)">
    <path
      d="M0.979492 35.1762C0.979492 54.2322 16.364 69.6946 35.3413 69.7314C54.466 69.7499 69.9611 54.3797 69.9795 35.3789C69.9795 16.1754 54.6318 0.731445 35.5071 0.731445C16.4193 0.731445 0.979492 16.1385 0.979492 35.1762Z"
      fill="white" />
    <path
      d="M0.979492 35.1762C0.979492 16.1385 16.4193 0.731445 35.5071 0.731445C54.6318 0.731445 69.9795 16.1754 69.9795 35.3789C69.9611 54.3797 54.466 69.7499 35.3413 69.7314C16.364 69.713 0.979492 54.2507 0.979492 35.1762ZM13.2503 57.1994C13.5082 57.1257 13.6556 57.1072 13.803 57.052C17.4142 55.9278 21.0254 54.8036 24.6182 53.6425C25.1341 53.4766 25.5579 53.4951 26.0553 53.7346C30.8089 56.0568 35.7651 56.6465 40.924 55.5039C53.0842 52.8316 60.454 40.1337 56.7507 28.2467C53.4895 17.7234 42.6927 11.4021 31.6932 13.6137C17.2852 16.5071 9.58377 32.1721 16.972 45.2755C17.1931 45.6625 17.1747 45.9758 17.0457 46.3629C15.7744 49.9382 14.54 53.5135 13.2503 57.1994Z"
      fill="#51C756" />
    <path
      d="M13.25 57.1994C14.5397 53.5135 15.7742 49.9382 17.027 46.3628C17.1744 45.9574 17.1744 45.6625 16.9533 45.2755C9.58351 32.1906 17.2666 16.5071 31.6746 13.6136C42.674 11.4021 53.4708 17.7234 56.7504 28.2467C60.4537 40.1337 53.0839 52.8316 40.9237 55.5039C35.7464 56.6465 30.8086 56.0383 26.0551 53.7346C25.5576 53.4951 25.1523 53.4766 24.618 53.6425C21.0252 54.8035 17.414 55.9277 13.8027 57.0519C13.6738 57.1072 13.5079 57.1257 13.25 57.1994ZM18.8511 51.947C19.0906 51.8917 19.2196 51.8733 19.3301 51.8364C21.3384 51.2098 23.3651 50.6201 25.3734 49.975C25.8156 49.8276 26.1288 49.9013 26.5341 50.1225C32.2273 53.366 38.0863 53.6793 44.019 50.9333C51.7942 47.3396 55.995 38.7515 54.0604 30.7531C51.3704 19.6217 39.5603 13.4478 28.9662 17.8156C22.3333 20.5431 18.4642 25.6297 17.5982 32.7619C17.0823 37.0559 18.1694 41.0551 20.6567 44.6305C20.9515 45.0543 21.0067 45.4229 20.8409 45.8837C20.325 47.3396 19.8644 48.7955 19.3854 50.2515C19.2011 50.7859 19.0353 51.3204 18.8511 51.947Z"
      fill="white" />
    <path
      d="M18.8517 51.9467C19.0359 51.3201 19.2017 50.7856 19.386 50.2512C19.865 48.7953 20.3441 47.3393 20.8415 45.8834C21.0073 45.4042 20.9705 45.0541 20.6573 44.6302C18.1515 41.0549 17.0645 37.0557 17.5988 32.7616C18.4648 25.611 22.3339 20.5244 28.9668 17.8153C39.5609 13.4659 51.371 19.6214 54.061 30.7528C55.9956 38.7696 51.7948 47.3393 44.0196 50.9331C38.0869 53.6791 32.2279 53.3473 26.5347 50.1222C26.1478 49.901 25.8162 49.8273 25.374 49.9748C23.3657 50.6198 21.3574 51.228 19.3307 51.8361C19.2017 51.873 19.0728 51.8914 18.8517 51.9467ZM40.7032 45.736C44.3144 45.7728 46.3227 44.0589 46.7649 41.0733C46.8386 40.5573 46.6912 40.1887 46.1937 39.9675C44.7198 39.3225 43.2642 38.659 41.8087 37.9771C41.2744 37.7191 40.8506 37.7929 40.5005 38.2905C39.9846 38.9908 39.4688 39.7095 38.8792 40.3546C38.6949 40.5573 38.2527 40.7416 38.0316 40.6494C34.6231 39.3778 31.9331 37.2215 30.1459 34.0148C29.9248 33.6278 29.9985 33.3329 30.2749 33.0196C30.7724 32.4852 31.233 31.8954 31.7304 31.361C32.1174 30.9555 32.1726 30.5685 31.9331 30.0525C31.3067 28.6334 30.6987 27.1775 30.0722 25.7584C29.9801 25.5372 29.8143 25.2239 29.63 25.1871C28.6904 24.9659 27.677 24.7079 26.8479 25.3161C25.3924 26.3666 24.508 27.8041 24.4159 29.6654C24.3238 31.6558 24.9502 33.4251 25.982 35.0653C28.4509 38.9908 31.6752 42.1422 35.9128 44.151C37.6263 44.9619 39.3582 45.6807 40.7032 45.736Z"
      fill="#51C756" />
    <path
      d="M40.7025 45.7367C39.3575 45.6814 37.6072 44.9626 35.9121 44.1517C31.6929 42.1429 28.4686 38.9915 25.9813 35.066C24.9495 33.4258 24.3231 31.6381 24.4152 29.6661C24.5073 27.8048 25.4101 26.3673 26.8472 25.3168C27.6763 24.7086 28.7081 24.9666 29.6293 25.1878C29.8136 25.2246 29.961 25.5379 30.0715 25.7591C30.698 27.1782 31.2876 28.6341 31.9324 30.0532C32.1535 30.5692 32.1167 30.9562 31.7297 31.3617C31.2323 31.8961 30.7717 32.4674 30.2742 33.0203C29.9978 33.3336 29.9241 33.6101 30.1452 34.0155C31.9508 37.2222 34.6224 39.3785 38.0309 40.6501C38.252 40.7423 38.7127 40.558 38.8785 40.3552C39.4681 39.7102 39.984 38.9915 40.4998 38.2911C40.8683 37.7935 41.2737 37.7198 41.808 37.9778C43.2635 38.6597 44.7191 39.3232 46.193 39.9682C46.7089 40.1894 46.8563 40.5395 46.7642 41.074C46.322 44.0596 44.3322 45.7735 40.7025 45.7367Z"
      fill="white" />
  </g>
  <defs>
    <clipPath id="clip0_118_2155">
      <rect width="69" height="69" fill="white" transform="translate(0.979492 0.731445)" />
    </clipPath>
  </defs>
</svg>